<mxfile host="app.diagrams.net" modified="2022-09-28T11:59:05.140Z" agent="5.0 (Windows NT 10.0; WOW64) AppleWebKit/537.36 (KHTML, like Gecko) Chrome/104.0.5112.102 Safari/537.36 OPR/90.0.4480.84 (Edition avira-2)" etag="mlnawUX61z0mwPev9VZ6" version="20.3.7" type="github">
  <diagram id="5JZrGAQw3RsTJfTbwltd" name="PÃ¡gina-1">
    <mxGraphModel dx="1038" dy="559" grid="1" gridSize="10" guides="1" tooltips="1" connect="1" arrows="1" fold="1" page="1" pageScale="1" pageWidth="827" pageHeight="1169" math="0" shadow="0">
      <root>
        <mxCell id="0" />
        <mxCell id="1" parent="0" />
      </root>
    </mxGraphModel>
  </diagram>
</mxfile>
